<svg width="1em" height="1em" viewBox="0 0 48 48" fill="none" xmlns="http://www.w3.org/2000/svg">
<path d="M26.3067 3.33335L40.76 11.6667C42.2978 12.5556 43.0667 13.8889 43.0667 15.6667V32.3334C43.0667 34.1111 42.2978 35.4445 40.76 36.3334L26.3067 44.6667C24.7689 45.5556 23.2311 45.5556 21.6933 44.6667L7.24 36.3334C5.70222 35.4445 4.93333 34.1111 4.93333 32.3334V15.6667C4.93333 13.8889 5.70222 12.5556 7.24 11.6667L21.6933 3.33335C23.2311 2.44446 24.7689 2.44446 26.3067 3.33335Z" stroke="#4E46B4" stroke-width="2.45" stroke-linecap="round" stroke-linejoin="round"/>
<path d="M16.4867 23.65H14.7133C14.301 23.65 13.9667 23.9843 13.9667 24.3967V26.17C13.9667 26.5824 14.301 26.9167 14.7133 26.9167H16.4867C16.899 26.9167 17.2333 26.5824 17.2333 26.17V24.3967C17.2333 23.9843 16.899 23.65 16.4867 23.65Z" fill="#4E46B4"/>
<path d="M20.6867 19.45H18.9133C18.501 19.45 18.1667 19.7843 18.1667 20.1967V21.97C18.1667 22.3824 18.501 22.7167 18.9133 22.7167H20.6867C21.099 22.7167 21.4333 22.3824 21.4333 21.97V20.1967C21.4333 19.7843 21.099 19.45 20.6867 19.45Z" fill="#4E46B4"/>
<path d="M20.6867 23.65H18.9133C18.501 23.65 18.1667 23.9843 18.1667 24.3967V26.17C18.1667 26.5824 18.501 26.9167 18.9133 26.9167H20.6867C21.099 26.9167 21.4333 26.5824 21.4333 26.17V24.3967C21.4333 23.9843 21.099 23.65 20.6867 23.65Z" fill="#4E46B4"/>
<path d="M24.8867 19.45H23.1133C22.701 19.45 22.3667 19.7843 22.3667 20.1967V21.97C22.3667 22.3824 22.701 22.7167 23.1133 22.7167H24.8867C25.299 22.7167 25.6333 22.3824 25.6333 21.97V20.1967C25.6333 19.7843 25.299 19.45 24.8867 19.45Z" fill="#4E46B4"/>
<path d="M24.8867 23.65H23.1133C22.701 23.65 22.3667 23.9843 22.3667 24.3967V26.17C22.3667 26.5824 22.701 26.9167 23.1133 26.9167H24.8867C25.299 26.9167 25.6333 26.5824 25.6333 26.17V24.3967C25.6333 23.9843 25.299 23.65 24.8867 23.65Z" fill="#4E46B4"/>
<path d="M29.0867 15.25H27.3133C26.901 15.25 26.5667 15.5843 26.5667 15.9967V17.77C26.5667 18.1824 26.901 18.5167 27.3133 18.5167H29.0867C29.499 18.5167 29.8333 18.1824 29.8333 17.77V15.9967C29.8333 15.5843 29.499 15.25 29.0867 15.25Z" fill="#4E46B4"/>
<path d="M29.0867 19.45H27.3133C26.901 19.45 26.5667 19.7843 26.5667 20.1967V21.97C26.5667 22.3824 26.901 22.7167 27.3133 22.7167H29.0867C29.499 22.7167 29.8333 22.3824 29.8333 21.97V20.1967C29.8333 19.7843 29.499 19.45 29.0867 19.45Z" fill="#4E46B4"/>
<path d="M29.0867 23.65H27.3133C26.901 23.65 26.5667 23.9843 26.5667 24.3967V26.17C26.5667 26.5824 26.901 26.9167 27.3133 26.9167H29.0867C29.499 26.9167 29.8333 26.5824 29.8333 26.17V24.3967C29.8333 23.9843 29.499 23.65 29.0867 23.65Z" fill="#4E46B4"/>
<path d="M33.2867 23.65H31.5133C31.101 23.65 30.7667 23.9843 30.7667 24.3967V26.17C30.7667 26.5824 31.101 26.9167 31.5133 26.9167H33.2867C33.699 26.9167 34.0333 26.5824 34.0333 26.17V24.3967C34.0333 23.9843 33.699 23.65 33.2867 23.65Z" fill="#4E46B4"/>
<path d="M12.3333 27.85H35.6667L34.0333 31.1166H10.7L12.3333 27.85Z" fill="#4E46B4" stroke="#4E46B4" stroke-width="0.42" stroke-linejoin="round"/>
<path d="M10.7 31.1166H34.0333L33.2167 32.75L10.7 31.1166Z" fill="#4E46B4" stroke="#4E46B4" stroke-width="0.42" stroke-linejoin="round"/>
</svg>
